<svg width="207" height="207" viewBox="0 0 207 207" fill="none" xmlns="http://www.w3.org/2000/svg">
  <path d="M74.3199 35.9359C87.3031 12.6453 93.7947 1 103.5 1C113.205 1 119.697 12.6453 132.68 35.9358L136.039 41.9614C139.728 48.5798 141.573 51.8891 144.449 54.0725C147.326 56.256 150.908 57.0665 158.072 58.6875L164.595 60.1633C189.806 65.8677 202.412 68.7199 205.411 78.3642C208.411 88.0086 199.817 98.058 182.629 118.157L178.182 123.357C173.298 129.068 170.856 131.924 169.757 135.457C168.659 138.99 169.028 142.8 169.766 150.42L170.439 157.358C173.037 184.174 174.337 197.582 166.485 203.542C158.633 209.503 146.83 204.068 123.224 193.2L117.117 190.388C110.409 187.299 107.055 185.755 103.5 185.755C99.9447 185.755 96.5907 187.299 89.8827 190.388L83.7757 193.199C60.1699 204.068 48.3671 209.503 40.5153 203.542C32.6635 197.582 33.9628 184.174 36.5613 157.358L37.2336 150.42C37.972 142.8 38.3412 138.99 37.2426 135.457C36.144 131.924 33.7019 129.068 28.8177 123.357L24.371 118.157C7.1833 98.058 -1.41055 88.0086 1.58857 78.3642C4.58768 68.7199 17.1935 65.8677 42.4052 60.1633L48.9278 58.6875C56.0922 57.0665 59.6744 56.256 62.5507 54.0725C65.4269 51.8891 67.2716 48.5798 70.961 41.9614L74.3199 35.9359Z" stroke="#262626" stroke-width="2" stroke-dasharray="16 6" />
</svg>