<svg width="207" height="207" viewBox="0 0 207 207" fill="none" xmlns="http://www.w3.org/2000/svg">
  <path d="M32.0938 91.0303L33.0223 90.659L32.596 89.5931L31.5986 90.1615L32.0938 91.0303ZM123.516 136.743L124.508 136.618L124.364 135.479L123.256 135.777L123.516 136.743ZM124 144.5L125 144.5L125 144.5L124 144.5ZM1 144.5L0 144.5V144.5H1ZM174.906 91.0303L175.401 90.1615L174.404 89.593L173.978 90.659L174.906 91.0303ZM206 144.5L207 144.5V144.5H206ZM144.5 206L144.5 207L144.5 207L144.5 206ZM116.463 199.252L115.761 198.54L114.776 199.51L116.006 200.142L116.463 199.252ZM139.375 144.5L140.375 144.5V144.5H139.375ZM138.213 131.11L137.761 130.218L137.1 130.553L137.228 131.283L138.213 131.11ZM32.0938 91.0303L31.5986 90.1615C29.2798 91.4829 27.0539 92.9485 24.9331 94.5459L25.5347 95.3447L26.1364 96.1435C28.1896 94.597 30.3444 93.1782 32.5889 91.8991L32.0938 91.0303ZM21.0044 99.1084L20.3295 98.3705C16.4064 101.959 12.9424 106.041 10.0361 110.519L10.875 111.064L11.7138 111.608C14.5273 107.273 17.8809 103.321 21.6793 99.8463L21.0044 99.1084ZM7.90891 116.152L7.02182 115.69C4.5921 120.36 2.73442 125.375 1.54191 130.642L2.51723 130.863L3.49255 131.084C4.64659 125.986 6.44434 121.133 8.796 116.614L7.90891 116.152ZM1.4946 136.663L0.502592 136.537C0.17091 139.145 5.16708e-07 141.803 0 144.5L1 144.5L2 144.5C2 141.887 2.16555 139.314 2.48661 136.79L1.4946 136.663ZM1 144.5H0C0 147.52 0.214293 150.491 0.628644 153.398L1.61864 153.256L2.60863 153.115C2.20756 150.302 2 147.425 2 144.5H1ZM2.89632 159.714L1.92721 159.961C3.41662 165.813 5.73179 171.336 8.74106 176.397L9.6006 175.886L10.4601 175.375C7.54726 170.476 5.30675 165.131 3.86544 159.467L2.89632 159.714ZM13.2632 181.357L12.4631 181.957C16.0371 186.724 20.2763 190.963 25.0431 194.537L25.643 193.737L26.2429 192.937C21.6279 189.476 17.5235 185.372 14.0633 180.757L13.2632 181.357ZM31.114 197.399L30.603 198.259C35.664 201.268 41.1866 203.583 47.0393 205.073L47.286 204.104L47.5326 203.135C41.8689 201.693 36.524 199.453 31.6251 196.54L31.114 197.399ZM53.7435 205.381L53.6024 206.371C56.5091 206.786 59.4798 207 62.5 207V206V205C59.5746 205 56.6982 204.792 53.8846 204.391L53.7435 205.381ZM62.5 206V207C65.5202 207 68.4909 206.786 71.3976 206.371L71.2565 205.381L71.1154 204.391C68.3018 204.792 65.4254 205 62.5 205V206ZM77.714 204.104L77.9607 205.073C83.8133 203.583 89.336 201.268 94.397 198.259L93.886 197.399L93.3749 196.54C88.476 199.453 83.1311 201.693 77.4674 203.135L77.714 204.104ZM99.357 193.737L99.9569 194.537C104.724 190.963 108.963 186.724 112.537 181.957L111.737 181.357L110.937 180.757C107.476 185.372 103.372 189.477 98.7571 192.937L99.357 193.737ZM115.399 175.886L116.259 176.397C119.268 171.336 121.583 165.813 123.073 159.961L122.104 159.714L121.135 159.467C119.693 165.131 117.453 170.476 114.54 175.375L115.399 175.886ZM123.381 153.256L124.371 153.398C124.786 150.491 125 147.52 125 144.5H124H123C123 147.425 122.792 150.302 122.391 153.115L123.381 153.256ZM124 144.5L125 144.5C125 143.537 124.978 142.58 124.935 141.628L123.936 141.673L122.937 141.718C122.979 142.64 123 143.568 123 144.5L124 144.5ZM123.804 139.556L124.801 139.477C124.725 138.518 124.627 137.565 124.508 136.618L123.516 136.743L122.523 136.868C122.639 137.784 122.734 138.707 122.807 139.635L123.804 139.556ZM123.516 136.743L123.256 135.777C120.933 136.402 118.565 136.92 116.159 137.324L116.325 138.31L116.491 139.296C118.96 138.881 121.39 138.35 123.775 137.709L123.516 136.743ZM110.851 139.028L110.757 138.032C108.369 138.259 105.948 138.375 103.5 138.375V139.375V140.375C106.011 140.375 108.495 140.256 110.946 140.024L110.851 139.028ZM103.5 139.375V138.375C100.729 138.375 97.9923 138.226 95.2984 137.937L95.1916 138.931L95.0847 139.926C97.8494 140.223 100.657 140.375 103.5 140.375V139.375ZM89.0205 138.013L89.2077 137.031C83.7531 135.991 78.5058 134.368 73.533 132.228L73.1377 133.146L72.7424 134.065C77.8472 136.262 83.234 137.929 88.8332 138.996L89.0205 138.013ZM67.5118 130.448L67.9806 129.565C63.1203 126.985 58.5736 123.893 54.4128 120.359L53.7654 121.121L53.1181 121.883C57.388 125.51 62.0543 128.684 67.043 131.331L67.5118 130.448ZM49.1762 116.893L49.8828 116.186C46.0136 112.321 42.5596 108.041 39.5936 103.419L38.752 103.959L37.9103 104.499C40.9544 109.243 44.499 113.635 48.4695 117.601L49.1762 116.893ZM35.5982 98.5745L36.4809 98.1046C35.1991 95.6969 34.0433 93.2121 33.0223 90.659L32.0938 91.0303L31.1652 91.4016C32.2134 94.0225 33.3998 96.5732 34.7155 99.0444L35.5982 98.5745ZM174.906 91.0303L173.978 90.659C173.153 92.7224 172.239 94.7412 171.243 96.7108L172.135 97.1623L173.027 97.6138C174.05 95.5921 174.988 93.5198 175.835 91.4016L174.906 91.0303ZM169.709 101.589L168.848 101.079C166.586 104.904 163.997 108.513 161.12 111.867L161.879 112.518L162.638 113.169C165.591 109.727 168.247 106.023 170.57 102.098L169.709 101.589ZM158.47 116.241L157.755 115.541C154.661 118.706 151.292 121.601 147.687 124.188L148.271 125L148.854 125.813C152.553 123.158 156.01 120.187 159.185 116.94L158.47 116.241ZM144.076 127.807L143.547 126.958C141.671 128.126 139.741 129.215 137.761 130.218L138.213 131.11L138.665 132.002C140.698 130.972 142.679 129.855 144.604 128.656L144.076 127.807ZM138.213 131.11L137.228 131.283C137.505 132.86 137.733 134.454 137.911 136.064L138.905 135.954L139.899 135.844C139.716 134.192 139.482 132.556 139.198 130.937L138.213 131.11ZM139.222 139.61L138.224 139.672C138.324 141.269 138.375 142.878 138.375 144.5H139.375H140.375C140.375 142.836 140.323 141.185 140.22 139.547L139.222 139.61ZM139.375 144.5L138.375 144.5C138.375 146.957 138.258 149.386 138.03 151.782L139.026 151.877L140.021 151.972C140.255 149.513 140.375 147.02 140.375 144.5L139.375 144.5ZM138.303 157.369L137.317 157.203C136.498 162.06 135.218 166.76 133.523 171.257L134.458 171.61L135.394 171.963C137.134 167.346 138.448 162.521 139.289 157.535L138.303 157.369ZM132.318 176.719L131.41 176.299C129.359 180.736 126.892 184.942 124.059 188.866L124.87 189.451L125.681 190.037C128.588 186.009 131.121 181.693 133.226 177.138L132.318 176.719ZM121.468 193.823L120.702 193.181C119.141 195.046 117.492 196.834 115.761 198.54L116.463 199.252L117.165 199.964C118.941 198.214 120.633 196.378 122.235 194.465L121.468 193.823ZM116.463 199.252L116.006 200.142C119.175 201.767 122.501 203.131 125.955 204.202L126.251 203.247L126.548 202.292C123.205 201.255 119.986 199.936 116.919 198.362L116.463 199.252ZM133.965 205.101L133.795 206.087C137.274 206.687 140.851 207 144.5 207V206V205C140.965 205 137.502 204.697 134.135 204.116L133.965 205.101ZM144.5 206L144.5 207C147.52 207 150.491 206.786 153.398 206.371L153.256 205.381L153.115 204.391C150.302 204.792 147.425 205 144.5 205L144.5 206ZM159.714 204.104L159.961 205.073C165.813 203.583 171.336 201.268 176.397 198.259L175.886 197.399L175.375 196.54C170.476 199.453 165.131 201.693 159.467 203.135L159.714 204.104ZM181.357 193.737L181.957 194.537C186.724 190.963 190.963 186.724 194.537 181.957L193.737 181.357L192.937 180.757C189.476 185.372 185.372 189.476 180.757 192.937L181.357 193.737ZM197.399 175.886L198.259 176.397C201.268 171.336 203.583 165.813 205.073 159.961L204.104 159.714L203.135 159.467C201.693 165.131 199.453 170.476 196.54 175.375L197.399 175.886ZM205.381 153.256L206.371 153.398C206.786 150.491 207 147.52 207 144.5L206 144.5L205 144.5C205 147.425 204.792 150.302 204.391 153.115L205.381 153.256ZM206 144.5H207C207 141.803 206.829 139.145 206.497 136.537L205.505 136.663L204.513 136.79C204.834 139.314 205 141.887 205 144.5H206ZM204.483 130.863L205.458 130.642C204.266 125.375 202.408 120.36 199.978 115.69L199.091 116.152L198.204 116.614C200.556 121.133 202.353 125.986 203.507 131.084L204.483 130.863ZM196.125 111.064L196.964 110.519C194.057 106.041 190.594 101.959 186.671 98.3706L185.996 99.1085L185.321 99.8463C189.119 103.321 192.473 107.273 195.286 111.608L196.125 111.064ZM181.465 95.3447L182.067 94.546C179.946 92.9485 177.72 91.4829 175.401 90.1615L174.906 91.0303L174.411 91.8991C176.656 93.1782 178.81 94.597 180.864 96.1435L181.465 95.3447ZM103.5 1V0C100.48 0 97.5091 0.214293 94.6024 0.628644L94.7435 1.61864L94.8846 2.60863C97.6982 2.20756 100.575 2 103.5 2V1ZM88.286 2.89632L88.0393 1.92721C82.1867 3.41662 76.664 5.73178 71.603 8.74106L72.114 9.6006L72.6251 10.4601C77.524 7.54726 82.8689 5.30675 88.5326 3.86544L88.286 2.89632ZM66.643 13.2632L66.0431 12.4631C61.2763 16.0371 57.0371 20.2763 53.4631 25.0431L54.2632 25.643L55.0633 26.2429C58.5235 21.6279 62.6279 17.5235 67.2429 14.0633L66.643 13.2632ZM50.6006 31.114L49.7411 30.603C46.7318 35.664 44.4166 41.1866 42.9272 47.0393L43.8963 47.286L44.8654 47.5326C46.3068 41.8689 48.5473 36.524 51.4601 31.6251L50.6006 31.114ZM42.6186 53.7435L41.6286 53.6024C41.2143 56.5091 41 59.4798 41 62.5H42H43C43 59.5746 43.2076 56.6982 43.6086 53.8846L42.6186 53.7435ZM42 62.5H41C41 65.5202 41.2143 68.4909 41.6286 71.3976L42.6186 71.2565L43.6086 71.1154C43.2076 68.3018 43 65.4254 43 62.5H42ZM43.8963 77.714L42.9272 77.9607C44.4166 83.8133 46.7318 89.336 49.7411 94.397L50.6006 93.886L51.4601 93.3749C48.5473 88.476 46.3068 83.1311 44.8654 77.4674L43.8963 77.714ZM54.2632 99.357L53.4631 99.9569C57.0371 104.724 61.2763 108.963 66.0431 112.537L66.643 111.737L67.2429 110.937C62.6279 107.477 58.5235 103.372 55.0633 98.7571L54.2632 99.357ZM72.114 115.399L71.603 116.259C76.664 119.268 82.1866 121.583 88.0393 123.073L88.286 122.104L88.5326 121.135C82.8689 119.693 77.524 117.453 72.6251 114.54L72.114 115.399ZM94.7435 123.381L94.6024 124.371C97.5091 124.786 100.48 125 103.5 125V124V123C100.575 123 97.6982 122.792 94.8846 122.391L94.7435 123.381ZM103.5 124V125C106.52 125 109.491 124.786 112.398 124.371L112.256 123.381L112.115 122.391C109.302 122.792 106.425 123 103.5 123V124ZM118.714 122.104L118.961 123.073C124.813 121.583 130.336 119.268 135.397 116.259L134.886 115.399L134.375 114.54C129.476 117.453 124.131 119.693 118.467 121.135L118.714 122.104ZM140.357 111.737L140.957 112.537C145.724 108.963 149.963 104.724 153.537 99.9569L152.737 99.357L151.937 98.7571C148.477 103.372 144.372 107.477 139.757 110.937L140.357 111.737ZM156.399 93.886L157.259 94.397C160.268 89.336 162.583 83.8134 164.073 77.9607L163.104 77.714L162.135 77.4674C160.693 83.1311 158.453 88.476 155.54 93.3749L156.399 93.886ZM164.381 71.2565L165.371 71.3976C165.786 68.4909 166 65.5202 166 62.5H165H164C164 65.4254 163.792 68.3018 163.391 71.1154L164.381 71.2565ZM165 62.5H166C166 59.4798 165.786 56.5091 165.371 53.6024L164.381 53.7435L163.391 53.8846C163.792 56.6982 164 59.5746 164 62.5H165ZM163.104 47.286L164.073 47.0393C162.583 41.1867 160.268 35.664 157.259 30.603L156.399 31.114L155.54 31.6251C158.453 36.524 160.693 41.8689 162.135 47.5326L163.104 47.286ZM152.737 25.643L153.537 25.0431C149.963 20.2763 145.724 16.0371 140.957 12.4631L140.357 13.2632L139.757 14.0633C144.372 17.5235 148.477 21.6279 151.937 26.2429L152.737 25.643ZM134.886 9.6006L135.397 8.74106C130.336 5.73179 124.813 3.41662 118.961 1.92721L118.714 2.89632L118.467 3.86544C124.131 5.30675 129.476 7.54727 134.375 10.4601L134.886 9.6006ZM112.256 1.61864L112.398 0.628643C109.491 0.214293 106.52 0 103.5 0V1V2C106.425 2 109.302 2.20756 112.115 2.60863L112.256 1.61864Z" fill="#262626" />
</svg>