<svg width="187" height="207" viewBox="0 0 187 207" fill="none" xmlns="http://www.w3.org/2000/svg">
  <path d="M62.7479 118.014C62.9463 118.174 63.43 118.558 63.7965 118.819C64.8289 119.552 66.5411 120.632 68.9888 121.747C73.8578 123.964 81.7744 126.384 93.25 126.384C104.726 126.384 112.642 123.964 117.511 121.747C119.959 120.632 121.671 119.552 122.703 118.819C123.22 118.452 123.568 118.17 123.752 118.014C123.831 117.948 123.88 117.904 123.9 117.886L123.908 117.879C126.986 114.929 131.79 115.078 134.692 118.235C137.62 121.421 137.501 126.463 134.427 129.497L134.414 129.51L134.399 129.524L134.368 129.554L134.292 129.627L134.088 129.817C133.93 129.962 133.726 130.143 133.475 130.355C132.973 130.78 132.283 131.329 131.398 131.957C129.628 133.215 127.08 134.791 123.698 136.331C116.908 139.424 106.887 142.315 93.25 142.315C79.6131 142.315 69.5922 139.424 62.8019 136.331C59.4199 134.791 56.8719 133.215 55.1015 131.957C54.2168 131.329 53.5272 130.78 53.0251 130.355C52.7878 130.155 52.2692 129.683 52.1491 129.57L52.1324 129.554C49.0579 126.52 48.8801 121.421 51.8082 118.235C54.7121 115.076 59.6697 115.057 62.7479 118.014ZM62.7479 118.014C62.6672 117.949 62.8012 118.059 62.7479 118.014ZM62.7479 118.014C62.6692 117.948 62.7678 118.032 62.7479 118.014ZM185.5 102.487V46.3984C185.5 23.1401 185.5 11.5109 178.251 5.14774C171.001 -1.21541 159.921 0.698128 137.76 4.52521L126.952 6.39166C110.139 9.29506 101.733 10.7468 93.25 10.7468C84.7668 10.7468 76.3606 9.29506 59.5482 6.39166L48.7404 4.52521C26.5792 0.698129 15.4986 -1.21541 8.24931 5.14774C1 11.5109 1 23.1401 1 46.3984V102.487C1 160.798 44.4494 189.095 71.7102 201.111C79.1051 204.37 82.8026 206 93.25 206C103.697 206 107.395 204.37 114.79 201.111C142.051 189.095 185.5 160.798 185.5 102.487ZM57.375 67.9701C49.757 67.9701 45.0173 71.5616 43.7517 74.1859C41.8539 78.1211 37.2366 79.7171 33.4387 77.7507C29.6408 75.7843 28.1004 71 29.9983 67.0647C34.7007 57.3139 46.0642 52.0392 57.375 52.0392C68.6858 52.0392 80.0493 57.3139 84.7517 67.0647C86.6496 71 85.1092 75.7843 81.3113 77.7507C77.5134 79.7171 72.8961 78.1211 70.9983 74.1859C69.7327 71.5616 64.993 67.9701 57.375 67.9701ZM115.502 74.1859C116.767 71.5616 121.507 67.9701 129.125 67.9701C136.743 67.9701 141.483 71.5616 142.748 74.1859C144.646 78.1211 149.263 79.7171 153.061 77.7507C156.859 75.7843 158.4 71 156.502 67.0647C151.799 57.3139 140.436 52.0392 129.125 52.0392C117.814 52.0392 106.451 57.3139 101.748 67.0647C99.8504 71 101.391 75.7843 105.189 77.7507C108.987 79.7171 113.604 78.1211 115.502 74.1859Z" stroke="#262626" stroke-width="2" stroke-dasharray="16 6" />
</svg>