<svg width="207" height="215" viewBox="0 0 207 215" fill="none" xmlns="http://www.w3.org/2000/svg">
  <path d="M16.6908 37.3359C16.7246 38.0994 16.7579 38.8549 16.7876 39.6012C17.4786 57.0082 19.3482 77.3626 24.9523 96.3068L16.8162 91.7867C9.10395 87.502 5.24776 85.3596 3.12408 81.7505C1.00039 78.1413 1.00027 73.73 1.00003 64.9074L1.00001 64.164C0.999723 53.467 0.999582 48.1185 3.90174 44.0918C6.24037 40.8471 9.98932 39.1187 16.6672 36.7998M16.6908 37.3359C16.6829 37.1576 16.675 36.9789 16.6672 36.7998M16.6908 37.3359L16.6672 36.7998M190.312 37.3359C190.279 38.0994 190.245 38.8549 190.216 39.6012C189.525 57.0075 187.655 77.3608 182.052 96.3044L190.183 91.7867C197.895 87.502 201.752 85.3596 203.875 81.7505C205.999 78.1413 205.999 73.73 205.999 64.9074L205.999 64.164C206 53.467 206 48.1185 203.098 44.0918C200.759 40.8476 197.011 39.1193 190.336 36.8011M190.312 37.3359C190.32 37.1581 190.328 36.9798 190.336 36.8011M190.312 37.3359L190.336 36.8011M32.1505 38.9913C31.6351 26.0098 31.3774 19.519 36.2535 13.5135C41.1296 7.50809 46.9656 6.52343 58.6376 4.55411C70.1592 2.61015 85.2202 1 103.502 1C121.783 1 136.844 2.61015 148.366 4.55411C160.038 6.52343 165.874 7.50809 170.75 13.5135C175.626 19.519 175.368 26.0098 174.853 38.9913C173.083 83.5582 163.466 139.224 111.188 144.148V180.375H125.847C130.733 180.375 134.94 183.824 135.898 188.615L137.838 198.312H165C169.246 198.312 172.688 201.754 172.688 206C172.688 210.246 169.246 213.688 165 213.688H42C37.7543 213.688 34.3125 210.246 34.3125 206C34.3125 201.754 37.7543 198.312 42 198.312H69.1625L71.102 188.615C72.0603 183.824 76.267 180.375 81.153 180.375H95.8125V144.148C43.5371 139.222 33.9198 83.5573 32.1505 38.9913ZM112.254 42.2308L113.262 44.0384C114.369 46.024 114.922 47.0167 115.785 47.6718C116.648 48.3268 117.722 48.5699 119.872 49.0562L121.828 49.499C129.392 51.2103 133.174 52.066 134.073 54.9593C134.973 57.8526 132.395 60.8674 127.239 66.897L125.905 68.457C124.439 70.1704 123.707 71.0271 123.377 72.087C123.048 73.1469 123.158 74.2899 123.38 76.576L123.582 78.6573C124.361 86.7021 124.751 90.7245 122.395 92.5127C120.04 94.3008 116.499 92.6705 109.417 89.4098L107.585 88.5663C105.573 87.6397 104.567 87.1764 103.5 87.1764C102.433 87.1764 101.427 87.6397 99.4148 88.5663L97.5827 89.4098C90.501 92.6705 86.9601 94.3008 84.6046 92.5127C82.249 90.7245 82.6388 86.7021 83.4184 78.6573L83.6201 76.576C83.8416 74.2899 83.9524 73.1469 83.6228 72.087C83.2932 71.0271 82.5606 70.1704 81.0953 68.457L79.7613 66.897C74.605 60.8674 72.0268 57.8526 72.9266 54.9593C73.8263 52.066 77.6081 51.2103 85.1716 49.499L87.1284 49.0562C89.2777 48.5699 90.3523 48.3268 91.2152 47.6718C92.0781 47.0167 92.6315 46.0239 93.7383 44.0384L94.746 42.2308C98.6409 35.2436 100.588 31.75 103.5 31.75C106.412 31.75 108.359 35.2436 112.254 42.2308Z" stroke="#262626" stroke-width="2" stroke-linecap="round" stroke-dasharray="16 6" />
</svg>