<svg width="197" height="197" viewBox="0 0 197 197" fill="none" xmlns="http://www.w3.org/2000/svg">
  <path d="M9.6564 19.9064C-1.88547 31.4483 -1.88547 50.1613 9.6564 61.7032L25.9307 77.9775C26.0529 77.8362 26.1811 77.6983 26.3153 77.5641L67.3153 36.5641C67.4491 36.4303 67.5866 36.3025 67.7274 36.1806L51.4532 19.9064C39.9113 8.36453 21.1983 8.36453 9.6564 19.9064Z" stroke="#262626" stroke-width="2" stroke-dasharray="16 6" />
  <path d="M78.5705 47.0237C78.4487 47.1646 78.3208 47.3021 78.187 47.4359L37.187 88.4359C37.0529 88.5701 36.9149 88.6983 36.7736 88.8204L135.047 187.094C146.589 198.635 165.302 198.635 176.844 187.094C188.385 175.552 188.385 156.839 176.844 145.297L78.5705 47.0237Z" stroke="#262626" stroke-width="2" stroke-dasharray="16 6" />
  <path d="M135.275 4.14869C136.925 -0.0495603 142.845 -0.049564 144.494 4.14868L148.906 15.3754C149.409 16.6571 150.42 17.6717 151.697 18.1772L162.883 22.605C167.065 24.2607 167.065 30.2023 162.883 31.8581L151.697 36.2858C150.42 36.7913 149.409 37.8059 148.906 39.0877L144.494 50.3143C142.845 54.5126 136.925 54.5126 135.275 50.3143L130.864 39.0877C130.36 37.8059 129.349 36.7913 128.072 36.2858L116.887 31.8581C112.704 30.2023 112.704 24.2607 116.887 22.605L128.072 18.1772C129.349 17.6717 130.36 16.6571 130.864 15.3754L135.275 4.14869Z" stroke="#262626" stroke-width="2" stroke-dasharray="16 6" />
  <path d="M174.914 74.0769C176.563 69.8787 182.483 69.8787 184.133 74.0769L185.741 78.1702C186.245 79.452 187.256 80.4666 188.533 80.9721L192.611 82.5865C196.794 84.2422 196.794 90.1838 192.611 91.8395L188.533 93.4539C187.256 93.9594 186.245 94.974 185.741 96.2558L184.133 100.349C182.483 104.547 176.563 104.547 174.914 100.349L173.305 96.2558C172.802 94.974 171.791 93.9594 170.514 93.4539L166.435 91.8395C162.253 90.1838 162.253 84.2422 166.435 82.5865L170.514 80.9721C171.791 80.4666 172.802 79.452 173.305 78.1702L174.914 74.0769Z" stroke="#262626" stroke-width="2" stroke-dasharray="16 6" />
  <path d="M22.8653 137.399C24.5149 133.2 30.4346 133.2 32.0843 137.399L33.6927 141.492C34.1964 142.774 35.2072 143.788 36.4842 144.294L40.5625 145.908C44.7452 147.564 44.7452 153.506 40.5625 155.161L36.4842 156.776C35.2072 157.281 34.1964 158.296 33.6927 159.578L32.0843 163.671C30.4346 167.869 24.5149 167.869 22.8653 163.671L21.2568 159.578C20.7532 158.296 19.7423 157.281 18.4653 156.776L14.3871 155.161C10.2043 153.506 10.2043 147.564 14.3871 145.908L18.4653 144.294C19.7423 143.788 20.7532 142.774 21.2568 141.492L22.8653 137.399Z" stroke="#262626" stroke-width="2" stroke-dasharray="16 6" />
</svg>