<svg width="198" height="172" viewBox="0 0 198 172" fill="none" xmlns="http://www.w3.org/2000/svg">
  <path d="M167.854 153.359L168.562 152.652L168.562 152.652L167.854 153.359ZM153.358 167.855L152.651 168.563L152.651 168.563L153.358 167.855ZM30.1455 153.358L29.4384 152.651L29.4384 152.651L30.1455 153.358ZM44.6416 153.358L45.3487 152.651L45.3487 152.651L44.6416 153.358ZM44.6416 167.854L45.3487 168.562L45.3487 168.562L44.6416 167.854ZM30.1455 167.854L29.4384 168.562L29.4384 168.562L30.1455 167.854ZM106.688 48.3232L106.836 47.3344L105.688 47.1616V48.3232H106.688ZM150.25 99L151.25 99L151.25 99L150.25 99ZM47.75 99L46.75 99V99H47.75ZM91.3125 48.3232H92.3125V47.1616L91.1637 47.3344L91.3125 48.3232ZM11.875 88.75L11.875 87.75L11.875 88.75ZM22.125 99L23.125 99L22.125 99ZM11.875 109.25L11.875 110.25H11.875L11.875 109.25ZM1.625 99L0.625 99L0.625 99L1.625 99ZM186.125 88.75L186.125 87.75L186.125 88.75ZM196.375 99L197.375 99L196.375 99ZM186.125 109.25L186.125 110.25H186.125L186.125 109.25ZM175.875 99L174.875 99V99L175.875 99ZM44.6416 30.1455L45.3487 29.4384L45.3487 29.4384L44.6416 30.1455ZM30.1455 44.6416L29.4384 45.3487L29.4384 45.3487L30.1455 44.6416ZM153.358 30.1455L152.651 29.4384L152.651 29.4384L153.358 30.1455ZM167.854 30.1455L168.562 29.4384L168.562 29.4384L167.854 30.1455ZM167.854 44.6416L168.562 45.3487L168.562 45.3487L167.854 44.6416ZM153.358 44.6416L152.651 45.3487L152.651 45.3487L153.358 44.6416ZM153.358 153.359L152.651 152.652C151.068 154.236 150.054 156.177 149.612 158.217L150.589 158.428L151.567 158.64C151.93 156.964 152.762 155.37 154.066 154.066L153.358 153.359ZM150.589 162.787L149.612 162.998C150.054 165.038 151.068 166.979 152.651 168.563L153.358 167.855L154.066 167.148C152.762 165.844 151.93 164.251 151.567 162.575L150.589 162.787ZM153.358 167.855L152.651 168.563C154.235 170.146 156.176 171.16 158.216 171.602L158.427 170.625L158.639 169.647C156.963 169.284 155.37 168.452 154.066 167.148L153.358 167.855ZM162.786 170.625L162.997 171.602C165.037 171.16 166.978 170.146 168.562 168.563L167.854 167.855L167.147 167.148C165.843 168.452 164.25 169.284 162.574 169.647L162.786 170.625ZM167.854 167.855L168.562 168.563C170.145 166.979 171.159 165.038 171.601 162.998L170.624 162.787L169.646 162.575C169.283 164.251 168.451 165.844 167.147 167.148L167.854 167.855ZM170.624 158.428L171.601 158.217C171.159 156.177 170.145 154.236 168.562 152.652L167.854 153.359L167.147 154.066C168.451 155.37 169.283 156.964 169.646 158.64L170.624 158.428ZM167.854 153.359L168.562 152.652C166.978 151.069 165.037 150.055 162.997 149.613L162.786 150.59L162.574 151.568C164.25 151.931 165.843 152.763 167.147 154.067L167.854 153.359ZM158.427 150.59L158.216 149.613C156.176 150.055 154.235 151.069 152.651 152.652L153.358 153.359L154.066 154.066C155.369 152.763 156.963 151.931 158.639 151.568L158.427 150.59ZM30.1455 153.358L29.4384 152.651C27.8548 154.235 26.8407 156.176 26.399 158.216L27.3764 158.427L28.3537 158.639C28.7166 156.963 29.5486 155.37 30.8526 154.066L30.1455 153.358ZM27.3764 162.786L26.399 162.997C26.8407 165.037 27.8548 166.978 29.4384 168.562L30.1455 167.854L30.8526 167.147C29.5486 165.843 28.7166 164.25 28.3537 162.574L27.3764 162.786ZM30.1455 167.854L29.4384 168.562C31.022 170.145 32.9631 171.159 35.0027 171.601L35.2144 170.624L35.426 169.646C33.7504 169.283 32.1566 168.451 30.8526 167.147L30.1455 167.854ZM39.5727 170.624L39.7844 171.601C41.824 171.159 43.7651 170.145 45.3487 168.562L44.6416 167.854L43.9345 167.147C42.6305 168.451 41.0367 169.283 39.3611 169.646L39.5727 170.624ZM44.6416 167.854L45.3487 168.562C46.9323 166.978 47.9463 165.037 48.3879 162.997L47.4106 162.786L46.4332 162.574C46.0704 164.25 45.2384 165.843 43.9345 167.147L44.6416 167.854ZM47.4106 158.427L48.388 158.216C47.9463 156.176 46.9323 154.235 45.3487 152.651L44.6416 153.358L43.9345 154.066C45.2385 155.369 46.0705 156.963 46.4333 158.639L47.4106 158.427ZM44.6416 153.358L45.3487 152.651C43.7651 151.068 41.824 150.054 39.7844 149.612L39.5727 150.589L39.3611 151.567C41.0367 151.93 42.6305 152.762 43.9345 154.066L44.6416 153.358ZM35.2144 150.589L35.0028 149.612C32.9631 150.054 31.0221 151.068 29.4384 152.651L30.1455 153.358L30.8526 154.066C32.1566 152.762 33.7504 151.93 35.426 151.567L35.2144 150.589ZM106.688 48.3232H105.688V55.6736H106.688H107.688V48.3232H106.688ZM106.688 61.1863H105.688V75.8869H106.688H107.688V61.1863H106.688ZM106.688 81.3997H105.688V88.75H106.688H107.688V81.3997H106.688ZM106.688 88.75H105.688C105.688 90.0837 105.298 91.3234 104.627 92.3652L105.468 92.9066L106.309 93.4481C107.181 92.093 107.688 90.4791 107.688 88.75H106.688ZM103.157 95.218L102.615 94.3772C101.573 95.0481 100.334 95.4375 99 95.4375V96.4375V97.4375C100.729 97.4375 102.343 96.9313 103.698 96.0587L103.157 95.218ZM99 96.4375V95.4375C97.6663 95.4375 96.4266 95.0481 95.3848 94.3772L94.8434 95.218L94.3019 96.0587C95.657 96.9313 97.2709 97.4375 99 97.4375V96.4375ZM92.532 92.9066L93.3728 92.3652C92.7019 91.3234 92.3125 90.0837 92.3125 88.75H91.3125H90.3125C90.3125 90.4791 90.8187 92.093 91.6913 93.4481L92.532 92.9066ZM91.3125 88.75H92.3125V81.3997H91.3125H90.3125V88.75H91.3125ZM91.3125 75.8869H92.3125V61.1863H91.3125H90.3125V75.8869H91.3125ZM91.3125 55.6736H92.3125V48.3232H91.3125H90.3125V55.6736H91.3125ZM91.3125 48.3232L91.1637 47.3344C88.1599 47.7862 85.2395 48.4938 82.4257 49.4343L82.7427 50.3827L83.0597 51.3312C85.7649 50.427 88.5727 49.7466 91.4613 49.3121L91.3125 48.3232ZM76.62 52.8822L76.1827 51.9829C70.7479 54.6252 65.8405 58.1815 61.6602 62.4517L62.3748 63.1513L63.0893 63.8508C67.1109 59.7428 71.8311 56.3223 77.0572 53.7816L76.62 52.8822ZM58.0612 68.164L57.2629 67.5617C53.6836 72.3061 50.8941 77.6809 49.0906 83.4906L50.0457 83.7871L51.0007 84.0835C52.7345 78.4983 55.4166 73.3298 58.8595 68.7662L58.0612 68.164ZM48.4997 90.2169L47.5143 90.0467C47.0118 92.9565 46.75 95.9481 46.75 99L47.75 99L48.75 99C48.75 96.0627 49.0019 93.1849 49.4851 90.3871L48.4997 90.2169ZM47.75 99H46.75C46.75 101.525 46.9291 104.008 47.2755 106.438L48.2655 106.297L49.2555 106.156C48.9224 103.819 48.75 101.43 48.75 99H47.75ZM49.3303 111.678L48.3612 111.925C49.6063 116.818 51.5419 121.435 54.0576 125.666L54.9172 125.155L55.7767 124.644C53.3573 120.575 51.4965 116.136 50.2994 111.432L49.3303 111.678ZM57.9694 129.714L57.1693 130.314C60.1571 134.299 63.701 137.843 67.686 140.831L68.2858 140.031L68.8857 139.231C65.0525 136.357 61.6434 132.947 58.7694 129.114L57.9694 129.714ZM72.845 143.083L72.334 143.942C76.565 146.458 81.182 148.394 86.075 149.639L86.3216 148.67L86.5683 147.701C81.8642 146.504 77.425 144.643 73.3561 142.223L72.845 143.083ZM91.7029 149.734L91.5618 150.724C93.9919 151.071 96.4753 151.25 99 151.25V150.25V149.25C96.57 149.25 94.1809 149.078 91.8441 148.744L91.7029 149.734ZM99 150.25V151.25C101.525 151.25 104.008 151.071 106.438 150.724L106.297 149.734L106.156 148.744C103.819 149.078 101.43 149.25 99 149.25V150.25ZM111.678 148.67L111.925 149.639C116.818 148.394 121.435 146.458 125.666 143.942L125.155 143.083L124.644 142.223C120.575 144.643 116.136 146.504 111.432 147.701L111.678 148.67ZM129.714 140.031L130.314 140.831C134.299 137.843 137.843 134.299 140.831 130.314L140.031 129.714L139.231 129.114C136.357 132.947 132.947 136.357 129.114 139.231L129.714 140.031ZM143.083 125.155L143.942 125.666C146.458 121.435 148.394 116.818 149.639 111.925L148.67 111.678L147.701 111.432C146.504 116.136 144.643 120.575 142.223 124.644L143.083 125.155ZM149.734 106.297L150.724 106.438C151.071 104.008 151.25 101.525 151.25 99H150.25H149.25C149.25 101.43 149.078 103.819 148.744 106.156L149.734 106.297ZM150.25 99L151.25 99C151.25 95.9481 150.988 92.9565 150.486 90.0467L149.5 90.2169L148.515 90.3871C148.998 93.1849 149.25 96.0627 149.25 99L150.25 99ZM147.954 83.7871L148.909 83.4906C147.106 77.6809 144.316 72.3061 140.737 67.5617L139.939 68.164L139.14 68.7662C142.583 73.3298 145.266 78.4983 146.999 84.0835L147.954 83.7871ZM135.625 63.1513L136.34 62.4517C132.16 58.1815 127.252 54.6252 121.817 51.9829L121.38 52.8822L120.943 53.7816C126.169 56.3223 130.889 59.7428 134.911 63.8508L135.625 63.1513ZM115.257 50.3827L115.574 49.4343C112.76 48.4938 109.84 47.7862 106.836 47.3344L106.688 48.3232L106.539 49.3121C109.427 49.7466 112.235 50.427 114.94 51.3312L115.257 50.3827ZM11.875 88.75L11.875 87.75C9.63543 87.75 7.5459 88.4054 5.7914 89.5353L6.33282 90.3761L6.87425 91.2168C8.31557 90.2886 10.0309 89.75 11.875 89.75L11.875 88.75ZM3.25106 93.4578L2.41031 92.9164C1.28045 94.6709 0.625 96.7604 0.625 99L1.625 99L2.625 99C2.625 97.1559 3.16363 95.4406 4.09181 93.9992L3.25106 93.4578ZM1.625 99L0.625 99C0.625 101.24 1.28045 103.329 2.41031 105.084L3.25106 104.542L4.09181 104.001C3.16363 102.559 2.625 100.844 2.625 99L1.625 99ZM6.33282 107.624L5.7914 108.465C7.5459 109.595 9.63543 110.25 11.875 110.25L11.875 109.25L11.875 108.25C10.0309 108.25 8.31557 107.711 6.87425 106.783L6.33282 107.624ZM11.875 109.25L11.875 110.25C14.1146 110.25 16.2041 109.595 17.9586 108.465L17.4172 107.624L16.8758 106.783C15.4344 107.711 13.7191 108.25 11.875 108.25L11.875 109.25ZM20.4989 104.542L21.3397 105.084C22.4696 103.329 23.125 101.24 23.125 99L22.125 99L21.125 99C21.125 100.844 20.5864 102.559 19.6582 104.001L20.4989 104.542ZM22.125 99L23.125 99C23.125 96.7604 22.4696 94.6709 21.3397 92.9164L20.4989 93.4578L19.6582 93.9992C20.5864 95.4406 21.125 97.1559 21.125 99L22.125 99ZM17.4172 90.3761L17.9586 89.5353C16.2041 88.4054 14.1146 87.75 11.875 87.75L11.875 88.75L11.875 89.75C13.7191 89.75 15.4344 90.2886 16.8758 91.2168L17.4172 90.3761ZM186.125 88.75L186.125 87.75C183.885 87.75 181.796 88.4054 180.041 89.5353L180.583 90.3761L181.124 91.2168C182.566 90.2886 184.281 89.75 186.125 89.75L186.125 88.75ZM177.501 93.4578L176.66 92.9164C175.53 94.6709 174.875 96.7604 174.875 99L175.875 99L176.875 99C176.875 97.1559 177.414 95.4406 178.342 93.9992L177.501 93.4578ZM175.875 99L174.875 99C174.875 101.24 175.53 103.329 176.66 105.084L177.501 104.542L178.342 104.001C177.414 102.559 176.875 100.844 176.875 99L175.875 99ZM180.583 107.624L180.041 108.465C181.796 109.595 183.885 110.25 186.125 110.25L186.125 109.25L186.125 108.25C184.281 108.25 182.566 107.711 181.124 106.783L180.583 107.624ZM186.125 109.25L186.125 110.25C188.365 110.25 190.454 109.595 192.209 108.465L191.667 107.624L191.126 106.783C189.684 107.711 187.969 108.25 186.125 108.25L186.125 109.25ZM194.749 104.542L195.59 105.084C196.72 103.329 197.375 101.24 197.375 99L196.375 99L195.375 99C195.375 100.844 194.836 102.559 193.908 104.001L194.749 104.542ZM196.375 99L197.375 99C197.375 96.7604 196.72 94.6709 195.59 92.9164L194.749 93.4578L193.908 93.9992C194.836 95.4406 195.375 97.1559 195.375 99L196.375 99ZM191.667 90.3761L192.209 89.5353C190.454 88.4054 188.365 87.75 186.125 87.75L186.125 88.75L186.125 89.75C187.969 89.75 189.684 90.2886 191.126 91.2168L191.667 90.3761ZM30.1455 30.1455L29.4384 29.4384C27.8548 31.022 26.8407 32.9631 26.399 35.0027L27.3764 35.2144L28.3537 35.426C28.7166 33.7504 29.5486 32.1566 30.8526 30.8526L30.1455 30.1455ZM27.3764 39.5727L26.399 39.7844C26.8407 41.824 27.8548 43.7651 29.4384 45.3487L30.1455 44.6416L30.8526 43.9345C29.5486 42.6305 28.7166 41.0367 28.3537 39.3611L27.3764 39.5727ZM30.1455 44.6416L29.4384 45.3487C31.0221 46.9323 32.9631 47.9463 35.0028 48.3879L35.2144 47.4106L35.426 46.4332C33.7504 46.0704 32.1566 45.2384 30.8526 43.9345L30.1455 44.6416ZM39.5727 47.4106L39.7844 48.388C41.824 47.9463 43.7651 46.9323 45.3487 45.3487L44.6416 44.6416L43.9345 43.9345C42.6305 45.2385 41.0367 46.0705 39.3611 46.4333L39.5727 47.4106ZM44.6416 44.6416L45.3487 45.3487C46.9323 43.7651 47.9463 41.824 48.388 39.7844L47.4106 39.5727L46.4333 39.3611C46.0705 41.0367 45.2385 42.6305 43.9345 43.9345L44.6416 44.6416ZM47.4106 35.2144L48.3879 35.0028C47.9463 32.9631 46.9323 31.0221 45.3487 29.4384L44.6416 30.1455L43.9345 30.8526C45.2384 32.1566 46.0704 33.7504 46.4332 35.426L47.4106 35.2144ZM44.6416 30.1455L45.3487 29.4384C43.7651 27.8548 41.824 26.8407 39.7844 26.399L39.5727 27.3764L39.3611 28.3537C41.0367 28.7166 42.6305 29.5486 43.9345 30.8526L44.6416 30.1455ZM35.2144 27.3764L35.0027 26.399C32.9631 26.8407 31.022 27.8548 29.4384 29.4384L30.1455 30.1455L30.8526 30.8526C32.1566 29.5486 33.7504 28.7166 35.426 28.3537L35.2144 27.3764ZM153.358 30.1455L152.651 29.4384C151.068 31.0221 150.054 32.9631 149.612 35.0028L150.589 35.2144L151.567 35.426C151.93 33.7504 152.762 32.1566 154.066 30.8526L153.358 30.1455ZM150.589 39.5727L149.612 39.7844C150.054 41.824 151.068 43.7651 152.651 45.3487L153.358 44.6416L154.066 43.9345C152.762 42.6305 151.93 41.0367 151.567 39.3611L150.589 39.5727ZM153.358 44.6416L152.651 45.3487C154.235 46.9323 156.176 47.9463 158.216 48.388L158.427 47.4106L158.639 46.4333C156.963 46.0705 155.369 45.2385 154.066 43.9345L153.358 44.6416ZM162.786 47.4106L162.997 48.3879C165.037 47.9463 166.978 46.9323 168.562 45.3487L167.854 44.6416L167.147 43.9345C165.843 45.2384 164.25 46.0704 162.574 46.4332L162.786 47.4106ZM167.854 44.6416L168.562 45.3487C170.145 43.7651 171.159 41.824 171.601 39.7844L170.624 39.5727L169.646 39.3611C169.283 41.0367 168.451 42.6305 167.147 43.9345L167.854 44.6416ZM170.624 35.2144L171.601 35.0027C171.159 32.9631 170.145 31.022 168.562 29.4384L167.854 30.1455L167.147 30.8526C168.451 32.1566 169.283 33.7504 169.646 35.426L170.624 35.2144ZM167.854 30.1455L168.562 29.4384C166.978 27.8548 165.037 26.8407 162.997 26.399L162.786 27.3764L162.574 28.3537C164.25 28.7166 165.843 29.5486 167.147 30.8526L167.854 30.1455ZM158.427 27.3764L158.216 26.399C156.176 26.8407 154.235 27.8548 152.651 29.4384L153.358 30.1455L154.066 30.8526C155.37 29.5486 156.963 28.7166 158.639 28.3537L158.427 27.3764ZM99 1.625V0.625C96.7604 0.625 94.6709 1.28045 92.9164 2.41031L93.4578 3.25106L93.9992 4.09181C95.4406 3.16363 97.1559 2.625 99 2.625V1.625ZM90.3761 6.33282L89.5353 5.7914C88.4054 7.5459 87.75 9.63543 87.75 11.875H88.75H89.75C89.75 10.0309 90.2886 8.31557 91.2168 6.87425L90.3761 6.33282ZM88.75 11.875H87.75C87.75 14.1146 88.4054 16.2041 89.5353 17.9586L90.3761 17.4172L91.2168 16.8758C90.2886 15.4344 89.75 13.7191 89.75 11.875H88.75ZM93.4578 20.4989L92.9164 21.3397C94.6709 22.4696 96.7604 23.125 99 23.125V22.125V21.125C97.1559 21.125 95.4406 20.5864 93.9992 19.6582L93.4578 20.4989ZM99 22.125V23.125C101.24 23.125 103.329 22.4696 105.084 21.3397L104.542 20.4989L104.001 19.6582C102.559 20.5864 100.844 21.125 99 21.125V22.125ZM107.624 17.4172L108.465 17.9586C109.595 16.2041 110.25 14.1146 110.25 11.875H109.25H108.25C108.25 13.7191 107.711 15.4344 106.783 16.8758L107.624 17.4172ZM109.25 11.875H110.25C110.25 9.63543 109.595 7.5459 108.465 5.7914L107.624 6.33282L106.783 6.87425C107.711 8.31557 108.25 10.0309 108.25 11.875H109.25ZM104.542 3.25106L105.084 2.41031C103.329 1.28045 101.24 0.625 99 0.625V1.625V2.625C100.844 2.625 102.559 3.16363 104.001 4.09181L104.542 3.25106Z" fill="#262626" />
</svg>