<svg width="51" height="50" viewBox="0 0 51 50" fill="none" xmlns="http://www.w3.org/2000/svg">
<g clip-path="url(#clip0_152_2769)">
<mask id="mask0_152_2769" style="mask-type:luminance" maskUnits="userSpaceOnUse" x="0" y="0" width="51" height="50">
<path d="M50.5 0H0.5V50H50.5V0Z" fill="white"/>
</mask>
<g mask="url(#mask0_152_2769)">
<path d="M25.4998 0L26.166 18.6599L30.6975 0.54631L27.4698 18.937L35.6683 2.16136L28.6873 19.4791L40.1945 4.77458L29.7655 20.2624L44.0783 8.27172L30.6573 21.2529L47.1505 12.5L31.3235 22.407L49.2763 17.2746L31.7355 23.6745L50.3628 22.3868L31.8748 25L50.3628 27.6133L31.7355 26.3255L49.2763 32.7255L31.3235 27.593L47.1505 37.5L30.6573 28.7472L44.0783 41.7282L29.7655 29.7375L40.1945 45.2255L28.6873 30.521L35.6683 47.8387L27.4698 31.063L30.6975 49.4538L26.166 31.34L25.4998 50L24.8334 31.34L20.302 49.4538L23.5298 31.063L15.3313 47.8387L22.3123 30.521L10.8051 45.2255L21.2341 29.7375L6.92114 41.7282L20.3423 28.7472L3.84914 37.5L19.6759 27.593L1.72335 32.7255L19.2641 26.3255L0.636719 27.6133L19.1248 25L0.636719 22.3868L19.2641 23.6745L1.72335 17.2746L19.6759 22.407L3.84914 12.5L20.3423 21.2529L6.92114 8.27172L21.2341 20.2624L10.8051 4.77458L22.3123 19.4791L15.3313 2.16136L23.5298 18.937L20.302 0.54631L24.8334 18.6599L25.4998 0Z" fill="#AE9B84"/>
</g>
</g>
<defs>
<clipPath id="clip0_152_2769">
<rect width="50" height="50" fill="white" transform="translate(0.5)"/>
</clipPath>
</defs>
</svg>
