<svg width="28" height="28" viewBox="0 0 28 28" fill="none" xmlns="http://www.w3.org/2000/svg">
  <path d="M11.5155 13.3105C11.5155 13.3105 13.9565 13.1251 13.9565 10.2042C13.9565 7.28584 12.301 5.84721 9.77047 5.84721L1.10156 5.8335V21.9617H9.97207C9.97207 21.9617 14.4073 22.102 14.4073 17.1232C14.4073 17.1232 14.7331 13.3105 11.5155 13.3105ZM4.3272 8.25273H8.76246C8.76246 8.25273 10.2801 8.27772 10.2801 10.2454C10.2801 12.2848 8.76246 12.2848 8.76246 12.2848H4.3272V8.25273ZM9.16566 19.5425H4.3272V14.704H9.16566C9.16566 14.704 11.5849 14.729 11.5849 17.1232C11.5849 19.5175 9.51403 19.5425 9.16566 19.5425Z" fill="#0F0F0F" />
  <path d="M21.262 9.86572C15.2035 9.86572 15.214 15.9138 15.214 15.9138C15.214 15.9138 14.8108 21.9619 21.262 21.9619C21.262 21.9619 26.9069 21.9619 26.9069 17.1234H23.6813C23.6813 17.1234 23.6813 19.5426 21.262 19.5426C21.262 19.5426 18.8428 19.5426 18.8428 16.317C18.8428 16.317 25.2941 16.317 26.9069 16.317C26.9069 14.7042 26.9069 9.86572 21.262 9.86572ZM18.8428 14.7042C18.8428 14.7042 18.7896 12.285 21.262 12.285C23.7337 12.285 23.6813 14.7042 23.6813 14.7042H18.8428Z" fill="#0F0F0F" />
  <path d="M24.4879 7.44629H18.0366V9.05911H24.4879V7.44629Z" fill="#0F0F0F" />
</svg>