<svg width="27" height="26" viewBox="0 0 27 26" fill="none" xmlns="http://www.w3.org/2000/svg">
  <path d="M13.2781 25.8332C6.19139 25.8332 0.429688 20.0815 0.429688 13.0049C0.429688 5.91817 6.19139 0.166504 13.2781 0.166504C20.3648 0.166504 26.1265 5.91817 26.1265 12.9948C26.1265 20.0715 20.3648 25.8332 13.2781 25.8332ZM24.1089 14.7514C23.7375 14.631 20.7161 13.7376 17.2731 14.2797C18.7085 18.2145 19.2907 21.4266 19.4012 22.0891C21.8705 20.4328 23.6271 17.8029 24.1089 14.7514ZM17.5642 23.1029C17.4036 22.1393 16.7612 18.7866 15.2254 14.7916C15.2053 14.8016 15.1752 14.8117 15.1552 14.8117C8.96183 16.9698 6.74347 21.256 6.54272 21.6575C8.39971 23.1029 10.7385 23.9662 13.2781 23.9662C14.7938 23.9762 16.2493 23.665 17.5642 23.1029ZM5.12738 20.3425C5.37833 19.9209 8.38967 14.9422 14.051 13.1052C14.1915 13.0551 14.3421 13.0149 14.4826 12.9748C14.2116 12.3524 13.9105 11.7301 13.5893 11.1178C8.10862 12.7539 2.78857 12.6837 2.30676 12.6736C2.30676 12.784 2.29672 12.8945 2.29672 13.0049C2.30676 15.8255 3.37077 18.3952 5.12738 20.3425ZM2.53763 10.7664C3.02948 10.7765 7.5465 10.7965 12.6859 9.43141C10.869 6.19923 8.9016 3.48902 8.62054 3.09755C5.53893 4.54299 3.25031 7.37365 2.53763 10.7664ZM10.7084 2.35475C11.0095 2.75626 13.0071 5.46647 14.8038 8.76891C18.7085 7.30339 20.3547 5.09507 20.5555 4.81401C18.6182 3.09755 16.0686 2.05361 13.2781 2.05361C12.3948 2.05361 11.5315 2.16403 10.7084 2.35475ZM21.7701 6.07878C21.5392 6.38995 19.7023 8.74883 15.647 10.4051C15.898 10.927 16.1489 11.459 16.3798 11.991C16.4601 12.1818 16.5404 12.3725 16.6207 12.5532C20.2744 12.0914 23.8981 12.8342 24.2595 12.9045C24.2293 10.3248 23.3059 7.94581 21.7701 6.07878Z" fill="#0F0F0F" />
</svg>