<svg width="24" height="24" viewBox="0 0 24 24" fill="none" xmlns="http://www.w3.org/2000/svg">
  <path d="M7.89291 12.0001C7.89291 9.85244 9.63452 8.11094 11.7835 8.11094C13.9325 8.11094 15.675 9.85244 15.675 12.0001C15.675 14.1478 13.9325 15.8893 11.7835 15.8893C9.63452 15.8893 7.89291 14.1478 7.89291 12.0001ZM5.78923 12.0001C5.78923 15.3088 8.47285 17.9908 11.7835 17.9908C15.0941 17.9908 17.7778 15.3088 17.7778 12.0001C17.7778 8.69147 15.0941 6.00945 11.7835 6.00945C8.47285 6.00945 5.78923 8.69147 5.78923 12.0001ZM16.6142 5.77192C16.6141 6.04881 16.6962 6.31952 16.85 6.54981C17.0038 6.7801 17.2225 6.95963 17.4785 7.06569C17.7344 7.17176 18.0161 7.1996 18.2878 7.14569C18.5596 7.09178 18.8092 6.95854 19.0052 6.76282C19.2012 6.56711 19.3347 6.31771 19.3889 6.04616C19.443 5.77461 19.4154 5.4931 19.3095 5.23724C19.2036 4.98138 19.0241 4.76266 18.7938 4.60874C18.5635 4.45481 18.2927 4.3726 18.0156 4.37249H18.0151C17.6437 4.37266 17.2876 4.52014 17.0249 4.78253C16.7623 5.04492 16.6146 5.40077 16.6142 5.77192ZM7.06735 21.4965C5.92922 21.4447 5.31061 21.2552 4.89951 21.0952C4.35449 20.8831 3.96562 20.6305 3.55676 20.2225C3.1479 19.8144 2.89482 19.4262 2.68357 18.8815C2.52332 18.4708 2.33374 17.8524 2.282 16.7149C2.22541 15.4852 2.21411 15.1158 2.21411 12.0002C2.21411 8.88467 2.22634 8.51629 2.282 7.2855C2.33383 6.14805 2.52481 5.53084 2.68357 5.11896C2.89575 4.57427 3.14846 4.18563 3.55676 3.77702C3.96506 3.36841 4.35356 3.11548 4.89951 2.90436C5.31042 2.7442 5.92922 2.55473 7.06735 2.50302C8.29784 2.44646 8.66748 2.43517 11.7835 2.43517C14.8995 2.43517 15.2695 2.4474 16.501 2.50302C17.6392 2.55482 18.2568 2.74569 18.6689 2.90436C19.2139 3.11548 19.6028 3.36897 20.0116 3.77702C20.4205 4.18507 20.6726 4.57427 20.8848 5.11896C21.0451 5.52963 21.2347 6.14805 21.2864 7.2855C21.343 8.51629 21.3543 8.88467 21.3543 12.0002C21.3543 15.1158 21.343 15.4842 21.2864 16.7149C21.2346 17.8524 21.0441 18.4706 20.8848 18.8815C20.6726 19.4262 20.4199 19.8148 20.0116 20.2225C19.6033 20.6302 19.2139 20.8831 18.6689 21.0952C18.258 21.2553 17.6392 21.4448 16.501 21.4965C15.2706 21.5531 14.9009 21.5643 11.7835 21.5643C8.66608 21.5643 8.29747 21.5531 7.06735 21.4965ZM6.97069 0.404149C5.72796 0.460709 4.87878 0.657642 4.13717 0.946041C3.36914 1.24387 2.71897 1.64343 2.06926 2.29172C1.41955 2.94001 1.02078 3.59082 0.722776 4.35839C0.434204 5.10002 0.237153 5.94823 0.180559 7.19021C0.123031 8.43415 0.109863 8.83185 0.109863 12.0001C0.109863 15.1684 0.123031 15.5661 0.180559 16.8101C0.237153 18.0521 0.434204 18.9002 0.722776 19.6419C1.02078 20.409 1.41964 21.0605 2.06926 21.7085C2.71887 22.3566 3.36914 22.7556 4.13717 23.0542C4.88018 23.3426 5.72796 23.5396 6.97069 23.5961C8.21603 23.6527 8.61331 23.6668 11.7835 23.6668C14.9537 23.6668 15.3516 23.6536 16.5963 23.5961C17.8391 23.5396 18.6878 23.3426 19.4298 23.0542C20.1974 22.7556 20.848 22.3568 21.4977 21.7085C22.1474 21.0603 22.5454 20.409 22.8442 19.6419C23.1328 18.9002 23.3308 18.052 23.3864 16.8101C23.443 15.5652 23.4562 15.1684 23.4562 12.0001C23.4562 8.83185 23.443 8.43415 23.3864 7.19021C23.3298 5.94813 23.1328 5.09955 22.8442 4.35839C22.5454 3.59129 22.1464 2.94104 21.4977 2.29172C20.8491 1.6424 20.1974 1.24387 19.4308 0.946041C18.6878 0.657642 17.839 0.459776 16.5972 0.404149C15.3525 0.347589 14.9546 0.333496 11.7844 0.333496C8.61425 0.333496 8.21603 0.346656 6.97069 0.404149Z" fill="#0F0F0F" />
</svg>